<svg width="256" height="256" version="1.1" viewBox="0 0 67.733 67.733" xmlns="http://www.w3.org/2000/svg">
 <path transform="scale(.26458)" d="m126.83 0.0039062c-1.8095 5.9939e-5 -3.6191 0.032736-4.998 0.099609-52.399 2.5411-94.649 44.789-97.188 97.188-0.13358 2.7579-0.12109 5.0088-0.12109 5.0215 1.7591 36.972 18.72 65.784 44.959 83.697 2.2804 1.5568 4.1934 4.9593 4.1934 7.7207v11.621a5 5 0 0 0 5 5h96.309a5 5 0 0 0 5-5v-11.621c0-2.7614 1.9129-6.164 4.1934-7.7207 26.241-17.913 43.2-46.723 44.83-78.699 0.14056-2.7575 0.12891-5.0088 0.12891-5.0215-2.6585-57.399-44.907-99.648-97.309-102.19-1.3789-0.066781-3.1885-0.099669-4.998-0.099609zm0 24.369c1.8095-5.9e-5 3.6203 0.042705 4.998 0.12891 39.202 2.4526 70.358 33.591 72.812 72.791 0.17254 2.7556 0.17216 7.2389-0.00586 9.9941-1.6589 25.66-15.871 48.844-37.982 61.971-2.3742 1.4095-6.372 3.4332-8.8301 4.6914a6.2221 6.2221 0 0 0-2.1777 6.1152v0.94532a5 5 0 0 1-5 5h-17.482v-64.959h18.166a1.2031 1.2443 0 0 0 1.043-1.8652l-24.498-43.889a1.2031 1.2443 0 0 0-1.043-0.62305 1.2031 1.2443 0 0 0-1.041 0.62305l-24.5 43.889a1.2031 1.2443 0 0 0 1.043 1.8652h18.189v64.959h-17.482a5 5 0 0 1-5-5v-0.94532a8.1637 8.1637 0 0 0-4.4531-7.2715c-1.2144-0.61948-4.2021-2.1256-6.5762-3.5352-22.109-13.127-36.304-36.31-37.961-61.971-0.1779-2.7553-0.17824-7.2386-0.005859-9.9941 2.4529-39.198 33.593-70.336 72.791-72.791 1.3778-0.086294 3.1866-0.12885 4.9961-0.12891zm-43.357 190.77a5 5 0 0 0-5 5v4.4238a5 5 0 0 0 5 5h86.717a5 5 0 0 0 5-5v-4.4238a5 5 0 0 0-5-5h-86.717zm24.887 19.219a5 5 0 0 0-5 5v4.4238a5 5 0 0 0 5 5h7.4434v2.2109a5 5 0 0 0 5 5h12.057a5 5 0 0 0 5-5v-2.2109h7.4434a5 5 0 0 0 5-5v-4.4238a5 5 0 0 0-5-5h-36.943z" style="-inkscape-stroke:none;color:#000000;fill:#32b478;paint-order:markers stroke fill;stroke-width:11.507"/>
</svg>
