<svg width="256" height="256" version="1.1" viewBox="0 0 67.733 67.733" xmlns="http://www.w3.org/2000/svg">
 <g transform="matrix(4.4084 4.4084 -4.4084 4.4084 444.85 -899.29)" style="fill:#32b478;font-variant-ligatures:none;stroke-width:1.7291">
  <rect x="58.318" y="149.73" width="1.811" height="9.7003" rx="0" ry=".34006" style="fill:#32b478"/>
  <path d="m60.708 146.36-7.51e-4 1.2905 2e-3 1.2215-0.74402 0.42731-0.74208 0.43042-0.74208-0.43042-0.74363-0.42731 2e-3 -1.2215-7.51e-4 -1.2886c-0.82165 0.51205-1.3214 1.4114-1.3223 2.3795 0 1.5502 1.2567 2.8068 2.8068 2.8068 1.5502 0 2.8069-1.2567 2.8069-2.8068-1.45e-4 -0.96876-0.49984-1.869-1.3219-2.3815z" style="fill:#32b478"/>
 </g>
</svg>
