<svg width="100" height="124.56" version="1.1" viewBox="0 0 15.589 124.56"
    xmlns="http://www.w3.org/2000/svg" xmlns:xlink="http://www.w3.org/1999/xlink">
    <defs>
        <linearGradient id="linearGradient1882">
            <stop style="stop-color:#800080" offset="0" />
            <stop style="stop-color:#13aaf4" offset="1" />
        </linearGradient>
        <linearGradient id="linearGradient1884" x2="10.939" y1="13.611" y2="-.014765"
            gradientTransform="matrix(1.425 0 0 1.425 0 .017134)" gradientUnits="userSpaceOnUse"
            xlink:href="#linearGradient1882" />
        <linearGradient id="linearGradient2484" x2="2.8944" y1="3.6013" y2="-.0039066"
            gradientTransform="matrix(5.386 0 0 5.386 0 .017134)" gradientUnits="userSpaceOnUse"
            xlink:href="#linearGradient1882" />
    </defs>
    <g transform="matrix(6.4147 0 0 6.4147 -42.206 .02506)">
        <g>
            <path id="svg_powerbutton_01"
                d="m5.4274 4.1921c-3.1396 1.0079-5.4274 3.9622-5.4274 7.4258 0 4.2882 3.5078 7.796 7.796 7.796s7.7932-3.5078 7.7932-7.796c0-3.4639-2.2874-6.4182-5.4274-7.4258v3.0783c1.5399 0.83384 2.5773 2.4597 2.5773 4.3475 0 2.7479-2.1953 4.9459-4.9431 4.9459-2.7479 0-4.957-2.198-4.957-4.9459 0-1.8891 1.0436-3.517 2.5885-4.3503z"
                style="color:#32B478;fill:url(#linearGradient1884);paint-order:markers stroke fill;stroke-linecap:round;stroke-width:5.386;transform-origin: center;" />
        </g>
        <g>
            <path id="svg_powerbutton_02"
                d="m7.7949-0.0039049a1.2918 1.2918 0 0 0-1.2939 1.2834v9.0783a1.2918 1.2918 0 0 0 1.2939 1.2834 1.2918 1.2918 0 0 0 1.2939-1.2834v-9.0783a1.2918 1.2918 0 0 0-1.2939-1.2834z"
                style="color:#32B478;fill:url(#linearGradient2484);stroke-linecap:round;stroke-width:5.386;transform-origin: 5.5580339px 7.420536px;" />
        </g>
    </g>
</svg>