<?xml version="1.0" encoding="UTF-8" standalone="no"?>
<!-- Created with Inkscape (http://www.inkscape.org/) -->

<svg
   width="750"
   height="500"
   viewBox="0 0 198.43751 132.29165"
   version="1.1"
   id="top_bg"
   xmlns:xlink="http://www.w3.org/1999/xlink"
   xmlns="http://www.w3.org/2000/svg"
   xmlns:svg="http://www.w3.org/2000/svg">
  <defs
     id="defs2">
    <linearGradient
       id="linearGradient7844">
      <stop
         style="stop-color:#71c5e3;stop-opacity:1"
         offset="0"
         id="stop7840" />
      <stop
         style="stop-color:#0d9efe;stop-opacity:1"
         offset="1"
         id="stop7842" />
    </linearGradient>
    <clipPath
       clipPathUnits="userSpaceOnUse"
       id="clipPath8914">
      <path
         style="fill:#00a81b;fill-opacity:1;stroke:none;stroke-width:2.24394;stroke-linecap:square;stroke-opacity:1;paint-order:stroke fill markers"
         id="path8916"
         width="1200"
         height="291.17059"
         x="158.75"
         y="1744.262"
         d="m 158.75,1744.262 h 1200 v 291.1706 h -1200 z" />
    </clipPath>
    <clipPath
       clipPathUnits="userSpaceOnUse"
       id="clipPath1107">
      <rect
         style="fill:#000000;fill-opacity:0.250509;stroke-width:92.3285;stroke-linecap:square;paint-order:stroke fill markers"
         id="rect1109"
         width="276.88293"
         height="276.88293"
         x="1391.297"
         y="750.51385"
         ry="21.083986" />
    </clipPath>
    <linearGradient
       xlink:href="#linearGradient7844"
       id="linearGradient7846"
       x1="1040.4192"
       y1="804.77118"
       x2="1213.7683"
       y2="978.12024"
       gradientUnits="userSpaceOnUse"
       gradientTransform="matrix(0.1906255,0,0,0.1906255,930.17805,1671.7995)" />
  </defs>
  <g
     id="main"
     transform="translate(-691.52808,-1821.2743)">
    <path
       id="path44067"
       style="fill:none;stroke:#000000;stroke-width:0.262525;stroke-linecap:square;stroke-opacity:1;paint-order:stroke fill markers"
       d="M 902.23259,1953.5572 A 111.48938,111.48938 0 0 1 790.74323,2065.0471 111.48938,111.48938 0 0 1 679.25387,1953.5572 111.48938,111.48938 0 0 1 790.74323,1842.0681 111.48938,111.48938 0 0 1 902.23259,1953.5572 Z" />
    <rect
       style="fill:#1f9aec;fill-opacity:1;stroke-width:0.276564;stroke-linecap:square;paint-order:stroke fill markers"
       id="sky"
       width="198.44458"
       height="132.2964"
       x="691.52087"
       y="1821.2611" />
    <path
       id="sun"
       style="fill:#ffc500;fill-opacity:1;stroke-width:0.15031;stroke-linecap:square;paint-order:stroke fill markers"
       d="m 724.71511,1798.7688 v 2.4173 a 5.0508716,5.0508716 0 0 0 -2.88077,1.1958 l -1.7115,-1.7112 -0.56105,0.561 1.71149,1.7114 a 5.0508716,5.0508716 0 0 0 -1.19602,2.8808 h -2.41759 v 0.7934 h 2.41759 a 5.0508716,5.0508716 0 0 0 1.19602,2.8805 l -1.71146,1.7116 0.56102,0.5617 1.7115,-1.7119 a 5.0508716,5.0508716 0 0 0 2.88077,1.1965 v 2.4172 h 0.79339 v -2.4168 a 5.0508716,5.0508716 0 0 0 2.88301,-1.1946 l 1.70933,1.7096 0.56103,-0.5617 -1.70936,-1.7092 a 5.0508716,5.0508716 0 0 0 1.1945,-2.8829 h 2.41699 v -0.7934 h -2.41758 a 5.0508716,5.0508716 0 0 0 -1.19607,-2.8808 l 1.71152,-1.7114 -0.56103,-0.561 -1.71152,1.7112 a 5.0508716,5.0508716 0 0 0 -2.88082,-1.1958 v -2.4173 z" />
    <circle
       style="fill:#fff500;fill-opacity:1;stroke-width:0.501182;stroke-linecap:square;paint-order:stroke fill markers"
       id="moon"
       cx="740.35754"
       cy="1806.2203"
       r="4.3070621" />
    <g
       id="mountains"
       transform="matrix(0.1653705,0,0,0.1653705,665.2684,1616.9572)">
      <path
         id="path9384"
         style="fill:#333737;fill-opacity:1;stroke:#000000;stroke-width:1.04087;stroke-linecap:square;stroke-opacity:1;paint-order:stroke fill markers"
         d="M 1163.3424,1965.9963 H 666.88445 c 0,0 200.86963,-438.065 248.22896,-438.065 47.35938,0 248.22899,438.065 248.22899,438.065 z" />
      <path
         id="path9386"
         style="fill:#dbeef1;fill-opacity:1;stroke:none;stroke-width:1.72516;stroke-linecap:square;paint-order:stroke fill markers"
         d="m 915.11355,1527.9315 c -13.10663,0 -37.99126,33.6242 -67.10108,82.1562 0,0 14.89155,-13.5762 24.66653,-13.4358 5.14554,0.074 7.54744,7.4602 12.69366,7.4414 0.24272,0 0.4884,-0.011 0.73672,-0.031 8.94156,-0.7014 12.51705,-12.8395 21.2872,-13.1206 6.7725,-0.2171 10.52485,9.2967 17.29598,9.0508 4.23238,-0.1537 5.96846,-6.6033 10.19921,-6.4204 5.79667,0.2505 7.04425,9.7602 12.84385,9.9559 0.12761,0 0.25678,0 0.38723,-0.01 3.85915,-0.2618 5.06518,-5.8521 8.85792,-6.0888 9.74946,-0.6086 25.23384,12.6555 25.23384,12.6555 -29.10979,-48.532 -53.99442,-82.1562 -67.10106,-82.1562 z" />
      <path
         id="path44409"
         style="fill:#333737;fill-opacity:1;stroke:#000000;stroke-width:1.04087;stroke-linecap:square;stroke-opacity:1;paint-order:stroke fill markers"
         d="M 1000.8091,1889.9915 H 504.35117 c 0,0 200.86963,-438.065 248.22896,-438.065 47.35938,0 248.22897,438.065 248.22897,438.065 z" />
      <path
         id="path9362"
         style="fill:#333737;fill-opacity:1;stroke:#000000;stroke-width:1.04087;stroke-linecap:square;stroke-opacity:1;paint-order:stroke fill markers"
         d="M 794.24455,1950.3495 H 297.78662 c 0,0 200.86963,-438.065 248.22896,-438.065 47.35938,0 248.22897,438.065 248.22897,438.065 z" />
      <path
         id="path9364"
         style="fill:#dbeef1;fill-opacity:1;stroke:none;stroke-width:1.72516;stroke-linecap:square;paint-order:stroke fill markers"
         d="m 546.01572,1512.2847 c -13.10663,0 -37.99126,33.6242 -67.10108,82.1562 0,0 14.89155,-13.5762 24.66653,-13.4358 5.14554,0.074 7.54744,7.4602 12.69366,7.4414 0.24272,0 0.4884,-0.011 0.73672,-0.031 8.94156,-0.7014 12.51705,-12.8395 21.2872,-13.1206 6.7725,-0.2171 10.52485,9.2967 17.29598,9.0508 4.23238,-0.1537 5.96846,-6.6033 10.19921,-6.4204 5.79667,0.2505 7.04425,9.7602 12.84385,9.9559 0.12761,0 0.25678,0 0.38723,-0.01 3.85915,-0.2618 5.06518,-5.8521 8.85792,-6.0888 9.74946,-0.6086 25.23384,12.6555 25.23384,12.6555 -29.10979,-48.532 -53.99442,-82.1562 -67.10106,-82.1562 z" />
      <path
         id="rect5112"
         style="fill:#dbeef1;fill-opacity:1;stroke:none;stroke-width:1.72516;stroke-linecap:square;paint-order:stroke fill markers"
         d="m 752.58027,1451.9267 c -13.10663,0 -37.99126,33.6242 -67.10108,82.1562 0,0 14.89155,-13.5762 24.66653,-13.4358 5.14554,0.074 7.54744,7.4602 12.69366,7.4414 0.24272,0 0.4884,-0.011 0.73672,-0.031 8.94156,-0.7014 12.51705,-12.8395 21.2872,-13.1206 6.7725,-0.2171 10.52485,9.2967 17.29598,9.0508 4.23238,-0.1537 5.96846,-6.6033 10.19921,-6.4204 5.79667,0.2505 7.04425,9.7602 12.84385,9.9559 0.12761,0 0.25678,0 0.38723,-0.01 3.85915,-0.2618 5.06518,-5.8521 8.85792,-6.0888 9.74946,-0.6086 25.23384,12.6555 25.23384,12.6555 -29.10979,-48.532 -53.99442,-82.1562 -67.10106,-82.1562 z" />
    </g>
    <g
       id="earth"
       transform="matrix(0.1653705,0,0,0.1653705,665.2684,1616.9572)">
      <path
         style="fill:#00b61b;fill-opacity:1;stroke:none;stroke-width:0.264583px;stroke-linecap:butt;stroke-linejoin:miter;stroke-opacity:1"
         d="m 1358.75,1774.0225 c -287.6032,0.7999 -861.35957,-29.7605 -1200.00002,261.4101 H 1358.75 Z"
         id="path12561" />
      <path
         id="path19263"
         style="color:#000000;fill:#8dea5a;stroke-width:1;-inkscape-stroke:none"
         d="m 902.86963,1783.0388 c -46.28167,15.8749 -159.8902,144.2116 -196.02678,235.7442 l 116.15927,-18.6853 c 32.10823,-87.3429 84.18309,-200.0865 147.47122,-221.438 -37.31073,2.2188 -43.22723,2.6146 -67.60371,4.3791 z" />
      <path
         style="fill:#009012;fill-opacity:1;stroke:none;stroke-width:0.264583px;stroke-linecap:butt;stroke-linejoin:miter;stroke-opacity:1"
         d="m 158.75,1792.7314 c 268.52544,1.8173 1099.8976,97.2601 1200,242.7012 H 158.74998 Z"
         id="path9365" />
      <path
         id="path14022"
         style="color:#000000;fill:#8dea5a;stroke-width:3.77953;-inkscape-stroke:none"
         d="m 3232.1149,3045.0168 c -182.2317,31.457 -683.2038,442.1579 -872.9929,762.0258 l 444.671,4e-4 c 172.2421,-306.6515 432.1347,-685.466 681.1143,-727.1513 -138.071,-19.4247 -162.5885,-22.7785 -252.7924,-34.8749 z"
         transform="matrix(0.26458333,0,0,0.26458333,-211.04774,1028.1526)" />
    </g>
    <g
       id="house01"
       transform="matrix(0.1653705,0,0,0.1653705,665.2684,1616.9572)">
      <ellipse
         style="fill:#000000;fill-opacity:0.250509;stroke-width:92.6042;stroke-linecap:square;paint-order:stroke fill markers"
         id="path2417"
         cx="1145.0309"
         cy="1866.219"
         rx="73.461693"
         ry="24.487228" />
      <path
         style="fill:#562324;fill-opacity:1;stroke-width:6;stroke-linecap:square;paint-order:stroke fill markers"
         id="path860"
         d="m 4433.2446,2596.2609 398.0003,689.3567 h -796.0005 z"
         transform="matrix(0.17214386,0,0,0.07595585,381.87506,1563.5257)" />
      <rect
         style="fill:#daba6d;fill-opacity:0.997817;stroke:none;stroke-width:0.517845;stroke-linecap:square;paint-order:stroke fill markers"
         id="rect9952"
         width="92.350105"
         height="53.1315"
         x="1098.8558"
         y="1813.0875" />
      <path
         id="windows"
         style="fill:#000000;fill-opacity:1;stroke-width:0.77704;stroke-linecap:square;paint-order:stroke fill markers"
         d="m 1125.9082,1825.2097 v 14.4279 h 16.7957 v -14.4279 z m 21.4497,0 v 14.4279 h 16.7957 v -14.4279 z m -21.4497,18.6163 v 14.4278 h 16.7957 v -14.4278 z m 21.4497,0 v 14.4278 h 16.7957 v -14.4278 z" />
      <rect
         style="fill:#000000;fill-opacity:0.250509;stroke-width:92.6042;stroke-linecap:square;paint-order:stroke fill markers"
         id="rect3249"
         width="92.350105"
         height="5.2223201"
         x="1098.8558"
         y="1813.0875" />
      <path
         id="windows11"
         style="opacity:0;fill:url(#linearGradient7846);fill-opacity:1;stroke-width:17.6527;stroke-linecap:square;paint-order:stroke fill markers"
         d="m 1129.0601,1825.2094 c -0.3056,0 -0.5516,0.246 -0.5516,0.5516 v 14.7783 c 0,0.3055 0.246,0.5516 0.5516,0.5516 h 14.7782 c 0.3056,0 0.5517,-0.2461 0.5517,-0.5516 v -14.7783 c 0,-0.3056 -0.2461,-0.5516 -0.5517,-0.5516 z m 17.1632,0 c -0.3055,0 -0.5516,0.246 -0.5516,0.5516 v 14.7783 c 0,0.3055 0.2461,0.5516 0.5516,0.5516 h 14.7783 c 0.3056,0 0.5516,-0.2461 0.5516,-0.5516 v -14.7783 c 0,-0.3056 -0.246,-0.5516 -0.5516,-0.5516 z m -17.1632,17.1632 c -0.3056,0 -0.5516,0.2461 -0.5516,0.5516 v 14.7783 c 0,0.3056 0.246,0.5516 0.5516,0.5516 h 14.7782 c 0.3056,0 0.5517,-0.246 0.5517,-0.5516 v -14.7783 c 0,-0.3055 -0.2461,-0.5516 -0.5517,-0.5516 z m 17.1632,0 c -0.3055,0 -0.5516,0.2461 -0.5516,0.5516 v 14.7783 c 0,0.3056 0.2461,0.5516 0.5516,0.5516 h 14.7783 c 0.3056,0 0.5516,-0.246 0.5516,-0.5516 v -14.7783 c 0,-0.3055 -0.246,-0.5516 -0.5516,-0.5516 z" />
    </g>
    <path
       style="fill:none;stroke:#673e28;stroke-width:1.09385;stroke-linecap:butt;stroke-linejoin:miter;stroke-miterlimit:4;stroke-dasharray:none;stroke-opacity:1"
       d="M 712.21137,1944.0498 V 1927.517"
       id="path18705" />
    <path
       style="fill:none;stroke:#673e28;stroke-width:0.437541;stroke-linecap:butt;stroke-linejoin:miter;stroke-miterlimit:4;stroke-dasharray:none;stroke-opacity:1"
       d="m 712.21137,1928.9375 10.72743,-7.2484"
       id="path28506" />
    <path
       style="fill:none;stroke:#673e28;stroke-width:0.525055;stroke-linecap:butt;stroke-linejoin:miter;stroke-miterlimit:4;stroke-dasharray:none;stroke-opacity:1"
       d="m 712.21137,1931.9459 -7.83758,-7.7251"
       id="path28508" />
    <path
       style="fill:none;stroke:#673e28;stroke-width:0.393791;stroke-linecap:butt;stroke-linejoin:miter;stroke-miterlimit:4;stroke-dasharray:none;stroke-opacity:1"
       d="m 712.21137,1928.9375 c 0,-1.4205 -4.28259,-7.7252 -4.28259,-7.7252"
       id="path28510" />
    <path
       style="fill:none;stroke:#673e28;stroke-width:0.393791;stroke-linecap:butt;stroke-linejoin:miter;stroke-miterlimit:4;stroke-dasharray:none;stroke-opacity:1"
       d="m 712.55298,1927.9649 3.92134,-5.2111"
       id="path28512" />
    <path
       style="fill:none;stroke:#673e28;stroke-width:0.656316;stroke-linecap:butt;stroke-linejoin:miter;stroke-miterlimit:4;stroke-dasharray:none;stroke-opacity:1"
       d="m 712.21137,1933.5864 5.69888,-5.5375"
       id="path28514" />
    <rect
       style="opacity:1;mix-blend-mode:normal;fill:#000000;fill-opacity:0.0174672;stroke:none;stroke-width:15.314;stroke-linecap:square;stroke-miterlimit:4;stroke-dasharray:none;stroke-opacity:1;paint-order:stroke fill markers"
       id="night_filter"
       width="198.44458"
       height="132.2964"
       x="691.52087"
       y="1821.2611" />
  </g>
</svg>
