<svg width="500" height="500" version="1.1" viewBox="0 0 132.29 132.29" xmlns="http://www.w3.org/2000/svg">
 <g transform="translate(0 -3.2607)" style="fill:#b7ba6b">
  <g style="fill:#b7ba6b">
   <g transform="matrix(.88899 0 0 .88899 7.3426 5.5482)" style="fill:#b7ba6b;stroke:#32b478">
    <path transform="matrix(.29762 0 0 .29762 -8.2595 -2.5731)" d="m183.76 31.088 1.8828 4.9629s2.5407 6.7154 4.9219 15.27c2.3812 8.5536 4.1023 19.364 3.7402 23.104-0.3376 3.4858-3.1833 9.1792-7.5586 16.432-4.3753 7.252-10.277 16.06-11.451 28.199-1.1494 11.882 1.8821 23.408 4.6328 33.277 1.4053 5.0423 2.852 9.5028 3.9453 12.701h29.834l-1.8867-4.9707s-2.5414-6.703-4.9219-15.244c-2.3805-8.5412-4.1016-19.331-3.7402-23.066 0.33652-3.479 3.1848-9.173 7.5605-16.426 4.3756-7.2525 10.281-16.067 11.457-28.207 1.1512-11.887-1.8822-23.422-4.6328-33.303-1.407-5.0543-2.8577-9.5252-3.9531-12.729h-29.83zm51.268 0 1.8848 4.9629s2.5407 6.7154 4.9219 15.27c2.3812 8.5536 4.1023 19.364 3.7402 23.104-0.3376 3.4858-3.1851 9.1792-7.5606 16.432-4.3753 7.252-10.277 16.06-11.451 28.199-1.1494 11.882 1.8821 23.408 4.6328 33.277 1.4053 5.0423 2.854 9.5028 3.9473 12.701h29.834l-1.8867-4.9707s-2.5414-6.703-4.9219-15.244c-2.3805-8.5412-4.1016-19.331-3.7402-23.066 0.33653-3.479 3.183-9.173 7.5586-16.426 4.3756-7.2525 10.283-16.067 11.459-28.207 1.1512-11.887-1.8822-23.422-4.6328-33.303-1.407-5.0543-2.8577-9.5252-3.9531-12.729h-29.832zm51.262 0 1.8828 4.9629s2.5407 6.7154 4.9219 15.27c2.3812 8.5536 4.1043 19.364 3.7422 23.104-0.3376 3.4858-3.1851 9.1792-7.5606 16.432-4.3753 7.252-10.277 16.06-11.451 28.199-1.1494 11.882 1.8821 23.408 4.6328 33.277 1.4053 5.0423 2.852 9.5028 3.9453 12.701h29.834l-1.8867-4.9707s-2.5414-6.703-4.9219-15.244c-2.3804-8.5412-4.1016-19.331-3.7402-23.066 0.33652-3.479 3.1848-9.173 7.5606-16.426 4.3756-7.2525 10.281-16.067 11.457-28.207 1.1512-11.887-1.8822-23.422-4.6328-33.303-1.407-5.0543-2.8577-9.5252-3.9531-12.729h-29.83zm-172.23 148.03v135.67c0 75.937-2.0803 117.31 67.521 130.78v12.625c0 3.3112 2.6559 5.9824 5.9668 5.9824h125.59c3.3109 0 5.9824-2.6701 5.9824-5.9824v-13.266c23.444-4.8467 38.938-12.911 48.777-25.113 17.574-21.794 18.053-57.021 18.053-102.26v-134.35c-25.002 9.3294-50.004 15.981-75.006 19.955v127.61c0 48.563-14.616 51.505-61.184 51.137-46.565-0.38163-60.205-4.2867-60.205-51.912v-128.57c-25.166-4.722-50.327-12.152-75.492-22.299z" style="-inkscape-stroke:none;color:#000000;fill:#b7ba6b;stroke:none"/>
   </g>
  </g>
 </g>
</svg>
